HIERARCHY
ROOT Hips
{
  OFFSET 13.6774 106.653 -34.4427
  CHANNELS 6 Xposition Yposition Zposition Zrotation Xrotation Yrotation
  JOINT ToSpine
  {
    OFFSET -2.69724 7.43032 -0.144315
    CHANNELS 3 Zrotation Xrotation Yrotation
    JOINT Spine
    {
      OFFSET -0.0310711 10.7595 1.96963
      CHANNELS 3 Zrotation Xrotation Yrotation
      JOINT Spine1
      {
        OFFSET 19.9056 3.91189 0.764692
        CHANNELS 3 Zrotation Xrotation Yrotation
        JOINT Neck
        {
          OFFSET 25.9749 7.03908 -0.130764
          CHANNELS 3 Zrotation Xrotation Yrotation
          JOINT Head
          {
            OFFSET 9.52751 0.295786 -0.907742
            CHANNELS 3 Zrotation Xrotation Yrotation
            End Site
            {
              OFFSET 16.4037 0.713936 2.7358
            }
          }
        }
        JOINT LeftShoulder
        {
          OFFSET 17.7449 4.33886 11.7777
          CHANNELS 3 Zrotation Xrotation Yrotation
          JOINT LeftArm
          {
            OFFSET 0.911315 1.27913 9.80584
            CHANNELS 3 Zrotation Xrotation Yrotation
            JOINT LeftForeArm
            {
              OFFSET 28.6126 1.18197 -3.53199
              CHANNELS 3 Zrotation Xrotation Yrotation
              JOINT LeftHand
              {
                OFFSET 27.5088 0.0218783 0.327423
                CHANNELS 3 Zrotation Xrotation Yrotation
                End Site
                {
                  OFFSET 18.6038 -0.000155887 0.382096
                }
              }
            }
          }
        }
        JOINT RightShoulder
        {
          OFFSET 17.1009 2.89543 -12.2328
          CHANNELS 3 Zrotation Xrotation Yrotation
          JOINT RightArm
          {
            OFFSET 1.4228 0.178766 -10.211
            CHANNELS 3 Zrotation Xrotation Yrotation
            JOINT RightForeArm
            {
              OFFSET 28.733 1.87905 2.64907
              CHANNELS 3 Zrotation Xrotation Yrotation
              JOINT RightHand
              {
                OFFSET 27.4588 0.290562 -0.101845
                CHANNELS 3 Zrotation Xrotation Yrotation
                End Site
                {
                  OFFSET 17.8396 -0.255518 -0.000602873
                }
              }
            }
          }
        }
      }
    }
  }
  JOINT LeftUpLeg
  {
    OFFSET -5.61296 -2.22332 -10.2353
    CHANNELS 3 Zrotation Xrotation Yrotation
    JOINT LeftLeg
    {
      OFFSET 2.56703 -44.7417 -7.93097
      CHANNELS 3 Zrotation Xrotation Yrotation
      JOINT LeftFoot
      {
        OFFSET 3.16933 -46.5642 -3.96578
        CHANNELS 3 Zrotation Xrotation Yrotation
        JOINT LeftToeBase
        {
          OFFSET 0.346054 -6.02161 12.8035
          CHANNELS 3 Zrotation Xrotation Yrotation
          End Site
          {
            OFFSET 0.134235 -1.35082 5.13018
          }
        }
      }
    }
  }
  JOINT RightUpLeg
  {
    OFFSET -5.7928 -1.72406 10.6446
    CHANNELS 3 Zrotation Xrotation Yrotation
    JOINT RightLeg
    {
      OFFSET -2.57161 -44.7178 -7.85259
      CHANNELS 3 Zrotation Xrotation Yrotation
      JOINT RightFoot
      {
        OFFSET -3.10148 -46.5936 -4.03391
        CHANNELS 3 Zrotation Xrotation Yrotation
        JOINT RightToeBase
        {
          OFFSET -0.0828122 -6.13587 12.8035
          CHANNELS 3 Zrotation Xrotation Yrotation
          End Site
          {
            OFFSET -0.131328 -1.35082 5.13018
          }
        }
      }
    }
  }
}
MOTION
Frames: 21
Frame Time: 0.03333333333333333
0.0000 93.1000 0.0000 -73.9845 -23.1840 -166.3165 -70.9878 0.2246 88.0049 132.9481 78.4462 -40.4097 -8.6128 32.4661 2.3833 -141.2116 13.3023 -170.1780 -159.5312 49.7340 -169.7868 0.0537 -13.6904 -21.5236 -123.1684 10.6937 -83.8259 12.4546 3.1436 -72.9586 -0.5249 0.0087 0.2957 -2.7043 12.8653 26.0816 -63.9055 -14.0855 161.8039 6.1490 -0.2753 90.8735 0.0356 -0.0478 -0.2058 -39.9432 -5.4107 62.6399 -9.1793 62.2318 -30.3437 -2.9512 -20.2333 -1.2982 4.1803 -10.2708 5.9588 -50.8759 -13.0117 91.4388 2.8354 51.0646 1.9922 -10.6741 14.4714 0.0834 2.6437 -26.9156 -10.9046 
0.0000 93.1000 0.0000 -72.9407 -12.4469 -170.2864 -70.9902 0.2441 88.0127 135.0524 79.3422 -42.4149 -10.3981 33.0574 2.0428 -142.0693 10.8115 -164.4168 -159.4889 47.0333 -169.8983 -0.0609 -13.3063 -22.3009 -124.1859 3.0452 -83.7913 10.1220 3.7955 -68.1218 -0.3656 0.0641 0.0548 -2.8458 12.6819 26.8691 -61.9778 -10.5212 163.1525 6.2222 -0.0223 92.0693 0.1520 -0.1368 -0.2698 -38.6377 -8.7854 60.0732 -10.9682 65.2422 -23.9830 -1.2379 -25.4211 -2.0999 5.6638 -12.8747 9.2088 -48.9347 -15.4287 94.7979 1.7793 45.9530 1.1145 -11.9623 6.8413 1.0244 1.9323 -33.2842 -0.9542 
0.0000 93.1000 0.0000 -71.2291 -1.2895 -174.1072 -70.9951 0.1313 88.0151 139.2083 79.0246 -47.9038 -12.1319 33.1103 2.3273 -143.3144 7.2113 -160.4126 -158.0916 43.1232 -170.5331 -0.0778 -13.1132 -24.4493 -128.8271 -4.6853 -83.7166 9.6041 3.7488 -65.0080 -0.0764 0.0649 0.0554 -3.0681 12.1761 31.7097 -60.2278 -5.4236 162.0536 7.0057 0.1951 94.8684 0.1388 -0.1061 -0.2757 -35.2271 -8.5611 64.6538 -12.5417 67.2757 -13.6672 0.8982 -27.1716 -2.5799 5.3066 -15.1060 13.4713 -44.9961 -15.3383 99.7769 1.7054 40.1489 8.0962 -11.6639 4.0511 1.3207 2.8390 -36.6431 -5.9632 
0.0000 93.1000 0.0000 -68.9632 5.7480 -176.1670 -70.9984 -0.1408 88.0143 138.2195 78.3271 -47.9719 -13.4656 32.5811 2.1184 -146.2363 3.8977 -159.2877 -156.4967 39.9815 -170.4935 0.0358 -12.9642 -25.7067 -138.1667 -8.6061 -82.6195 8.9510 3.7224 -63.8612 -0.0477 -0.0765 0.1592 -3.1718 11.7637 34.4987 -58.7812 -4.1559 157.9991 7.8622 0.8009 99.0350 0.1237 0.1044 0.0151 -31.8744 -7.1207 65.9007 -12.4497 69.2352 -9.3012 1.5923 -28.1727 -2.7783 4.4702 -13.2907 15.8768 -41.6956 -15.0498 96.9364 0.8626 34.8880 13.8783 -12.9759 3.5604 1.3877 2.3940 -35.8100 -11.2058 
0.0000 93.1000 0.0000 -65.9584 7.6883 -176.2206 -71.0046 -0.3329 88.0131 131.1738 76.8960 -43.7286 -13.7244 30.5196 2.8574 -149.4715 1.3347 -158.1104 -155.3061 37.8423 -170.2529 -0.0433 -12.7885 -25.5389 -147.7927 -7.3741 -81.6416 8.2767 4.1188 -61.2563 -0.0679 -0.1347 0.1289 -3.2916 11.2970 35.3574 -58.0288 -6.6230 153.8934 8.3601 1.6529 101.8154 0.0227 0.1691 0.0407 -27.1544 -5.3083 66.0284 -13.0432 70.3088 -7.9269 2.1119 -26.5665 -2.6114 4.5369 -13.3842 17.1836 -40.2415 -15.9067 88.0280 -1.0770 28.9873 19.9849 -13.7683 5.1741 1.3432 2.5789 -34.8743 -12.2522 
0.0000 93.1000 0.0000 -63.9900 6.7738 -176.0848 -71.0056 -0.1356 88.0165 121.0038 74.8461 -37.3799 -12.9057 27.2657 4.0478 -152.4147 -0.0673 -157.0730 -154.3657 36.9798 -170.1702 0.7269 -12.8639 -25.7804 -153.0875 -5.9552 -83.6421 9.0999 5.0022 -59.3046 0.1856 -0.1168 -0.0269 -2.7610 10.1901 36.9671 -56.9605 -8.3343 147.9798 8.7637 2.0430 104.1913 -0.0252 0.1943 0.2450 -24.0956 -2.4251 67.8792 -9.5508 66.2601 -10.7793 1.9436 -22.9970 -2.9148 4.5555 -13.8061 19.1057 -40.9865 -15.1895 82.0874 -2.2235 23.0515 25.1199 -11.3918 7.8443 1.2460 2.9837 -33.7106 -9.9794 
0.0000 93.1000 0.0000 -63.0710 5.2817 -175.0851 -71.0095 -0.1493 88.0188 119.1468 72.2584 -37.7786 -12.9556 24.2339 4.5665 -153.4866 -1.2694 -158.0587 -152.4570 36.0931 -168.9625 0.0894 -12.8427 -25.1659 -154.0618 -4.8459 -81.6679 9.8728 5.7415 -58.0714 -0.2568 -0.0680 0.0849 -3.0083 9.2287 38.2084 -55.1200 -10.1215 139.8715 8.8565 2.6537 106.0367 -0.0042 0.2670 0.1495 -21.8199 3.4746 72.0197 -7.4582 62.2620 -7.7297 2.2223 -22.0452 -2.6191 3.9345 -14.3715 22.2727 -41.8924 -14.9077 80.7718 0.0085 19.0359 21.8079 -8.7494 10.5724 0.5268 2.9091 -31.6117 -8.0731 
0.0000 93.1000 0.0000 -61.8660 3.8431 -172.7937 -71.0072 -0.2478 88.0206 119.0703 70.3526 -38.1309 -13.0768 21.9959 4.8279 -152.4005 -1.8759 -156.6015 -151.3629 35.8566 -168.3956 -0.2619 -12.9423 -25.4935 -153.0174 -4.1529 -79.7251 9.0697 5.3482 -58.2877 -0.4067 -0.1300 0.1746 -3.0838 8.7209 38.7676 -53.8478 -13.0347 133.0891 9.2394 2.8922 107.0830 0.0456 0.3436 0.1586 -19.9807 12.1551 79.1141 -4.8916 59.2993 -0.4320 2.8516 -22.8970 -2.5885 1.5839 -10.7382 21.7221 -43.9757 -13.8497 81.1111 0.9777 15.0202 16.9444 -5.6828 13.3824 -0.3567 2.5494 -29.5775 -5.2957 
0.0000 93.1000 0.0000 -62.3053 2.8779 -171.7253 -71.0041 -0.1593 88.0172 115.1100 69.9124 -35.3185 -11.8908 21.1290 4.6143 -151.4414 -2.1723 -157.5977 -150.3747 35.3521 -168.5100 -0.1190 -12.9519 -25.8056 -152.1300 -2.9398 -78.6472 9.2103 5.1564 -59.2999 -0.1895 -0.0731 0.0086 -2.7972 8.3823 38.8940 -53.0653 -16.0256 127.9324 10.0163 3.0114 107.9455 -0.1599 0.2047 0.1410 -20.3077 20.7132 90.8108 -3.2367 56.2093 4.3024 2.5458 -22.7986 -2.7655 -0.9607 -6.1800 20.5193 -45.9499 -13.2776 80.2397 0.8407 13.8398 16.8656 -2.1677 14.3628 -0.6363 3.1674 -27.7796 -4.5309 
0.0000 93.1000 0.0000 -61.9084 2.8228 -173.0237 -70.9959 -0.1555 88.0163 111.9708 69.6376 -31.2081 -10.5756 20.7496 4.0331 -149.3878 -2.2746 -159.0883 -149.3117 35.1305 -168.5865 0.1911 -12.9802 -26.9206 -153.0029 -3.0955 -76.6978 9.8729 4.7197 -62.1449 -0.0554 -0.0738 0.0313 -2.3573 7.9899 37.1760 -50.8360 -19.2364 126.0052 10.7367 3.9061 108.0407 -0.1632 0.2097 0.0555 -22.9681 28.7447 102.1402 -2.7360 54.0858 5.8993 0.1364 -20.8416 -2.4811 -2.7541 -2.4069 18.7264 -46.8691 -14.0832 79.1006 0.7472 14.9832 17.0161 -1.5362 14.1951 -0.4189 2.7705 -28.7807 -2.2425 
0.0000 93.1000 0.0000 -63.0950 1.8255 -174.0668 -70.9899 -0.0381 88.0158 109.0170 69.1362 -28.8428 -8.9318 20.6268 2.8167 -149.3677 -2.2728 -159.1110 -150.2532 35.1100 -169.4072 0.4671 -13.0711 -28.0856 -153.0956 -2.8111 -73.6650 9.8607 3.7872 -66.1843 0.1535 -0.0256 0.0488 -1.9883 7.7060 34.9941 -48.0906 -22.0314 126.7718 11.0033 4.1196 107.9450 -0.0044 0.1520 0.1020 -26.9714 34.1734 111.8775 -2.7199 52.1815 3.1176 -2.5181 -15.2897 -1.9981 -2.8605 -2.0870 15.5426 -47.7462 -16.8137 77.8677 1.8891 15.1284 19.9436 -1.3954 14.1708 -0.2846 2.9831 -30.9876 -3.0351 
0.0000 93.1000 0.0000 -63.0382 0.9935 -173.9777 -70.9846 0.2353 88.0102 108.0588 69.9507 -25.4186 -7.6594 21.2169 2.0815 -148.3475 -1.8792 -157.7032 -150.6009 34.7745 -169.6961 0.2627 -13.3797 -29.8395 -154.1820 -1.8392 -71.7089 9.9662 2.9547 -71.2896 0.2243 0.2116 -0.1196 -2.0419 7.7703 34.0782 -46.0438 -22.1463 129.0051 11.2610 4.1656 108.7921 -0.1682 -0.1295 -0.1105 -29.3761 36.2931 116.1258 -3.9772 53.2276 0.2106 -5.3982 -12.1023 -1.4141 -2.0006 -2.2570 10.4055 -46.9937 -18.0336 77.2052 1.7834 19.0368 22.2498 -3.8518 11.8231 0.1592 3.2856 -33.7025 -6.7639 
0.0000 93.1000 0.0000 -63.9976 -0.1105 -174.0965 -70.9881 -0.0164 88.0034 104.9555 71.0342 -21.1151 -6.5618 21.7472 1.3209 -147.3536 -0.6903 -157.5466 -150.4663 35.0343 -169.4383 -0.6731 -13.9224 -32.4614 -155.9968 -1.1673 -70.6060 11.1891 2.6884 -75.1539 -0.0906 0.1307 -0.0314 -2.7180 7.7098 35.7121 -44.7740 -21.4206 129.8261 12.0078 4.2446 110.8422 -0.0425 -0.1908 -0.3839 -29.0114 36.9896 117.1716 -4.3904 55.1492 -2.0660 -6.8188 -13.4902 -0.8637 -1.5613 -1.7368 8.2246 -44.9158 -18.8292 78.0481 1.0036 25.1316 19.2759 -7.8334 8.2844 0.4166 2.1465 -33.9584 -10.0739 
0.0000 93.1000 0.0000 -64.1304 -2.1903 -174.0651 -70.9874 0.0182 88.0057 103.1188 71.7770 -17.9305 -4.7270 21.9687 1.4438 -145.3456 0.7366 -157.4234 -149.1092 36.0812 -169.7889 0.0091 -14.8879 -34.7856 -156.9894 1.0841 -70.7292 12.1497 1.9328 -78.2264 -0.0653 -0.0260 -0.1088 -2.3646 7.8476 37.1372 -45.0441 -22.0294 130.0934 11.9027 4.9203 111.0397 -0.0644 0.0658 -0.0472 -27.9339 36.1171 115.9952 -5.2914 56.3608 -2.0548 -6.1105 -13.2588 -1.5420 -1.1499 -1.7828 8.1117 -43.8859 -19.1686 79.1832 2.0150 29.9255 15.1157 -11.5226 5.4128 1.0031 2.1727 -33.1303 -13.0480 
0.0000 93.1000 0.0000 -65.1090 -4.0786 -174.2345 -70.9898 -0.0498 88.0053 102.0756 71.9784 -16.1237 -3.2242 22.4077 0.8734 -143.3221 1.9516 -157.4331 -149.3723 37.0039 -170.9525 -0.3094 -15.7146 -35.9541 -156.9502 3.1767 -70.6753 12.1561 1.8320 -79.0863 -0.0948 0.0058 0.0230 -2.5708 7.9806 37.9789 -45.8186 -22.8760 131.8542 11.5651 4.8406 110.8894 0.1431 0.1858 -0.0083 -27.1461 35.0354 112.9325 -5.2079 58.3047 -1.0005 -5.5093 -13.2799 -1.5503 -0.6168 -3.1710 6.7119 -44.8903 -19.8686 79.8351 1.9488 33.3197 12.0372 -12.5816 2.8798 1.0875 1.8357 -32.8441 -15.1124 
0.0000 93.1000 0.0000 -67.1106 -6.1938 -173.3822 -70.9894 0.1721 88.0024 101.9617 72.1811 -13.1370 -2.2012 22.7382 0.3348 -142.2597 3.1124 -158.2948 -148.7043 37.8626 -172.1170 -0.8296 -15.9085 -36.2701 -157.0122 5.1953 -70.7596 12.7870 2.0878 -80.2236 0.0089 0.2352 -0.1528 -2.8214 8.0207 38.8393 -44.8677 -22.3297 133.8500 12.1272 3.9902 109.9254 0.1071 -0.0481 -0.1820 -27.0884 33.9009 110.0777 -5.2422 59.2832 -0.9386 -4.7908 -13.0104 -1.4605 -0.4357 -4.0131 6.7511 -45.8328 -20.0966 80.2632 2.0117 35.9635 9.8800 -13.9071 0.9062 1.3339 1.3982 -33.6781 -17.0063 
0.0000 93.1000 0.0000 -67.1829 -8.1113 -173.4142 -70.9902 -0.0110 88.0041 100.0718 73.0391 -10.9538 -1.2176 23.1647 0.1601 -141.2455 3.7267 -159.2394 -148.7087 38.1949 -173.1376 -1.0238 -16.3062 -37.0447 -154.0933 5.9587 -70.9088 14.0103 1.7520 -81.1479 -0.0215 0.0389 -0.1364 -2.9886 7.9611 39.9480 -44.8647 -22.0137 135.8616 12.2578 4.4285 108.7716 0.1932 0.0854 0.0692 -26.1766 33.1203 108.9409 -5.7519 60.2223 -0.7477 -4.9771 -13.1435 -1.3105 -0.7757 -2.7792 6.9391 -46.8377 -20.3293 79.9197 1.9522 38.2133 8.7364 -14.9858 -1.0035 1.3621 0.9642 -33.2210 -17.8460 
0.0000 93.1000 0.0000 -67.1585 -9.1192 -173.4714 -70.9912 -0.0551 88.0045 96.0899 73.8458 -7.2200 -0.2076 23.6017 0.5574 -140.2501 3.8786 -159.9148 -148.6087 38.8942 -173.1511 -0.9677 -16.8255 -37.1140 -151.0675 6.1601 -70.7499 13.9612 1.9787 -80.3518 0.0289 -0.0667 -0.1897 -2.9410 8.0654 39.9375 -44.9159 -21.9057 136.9723 11.7695 4.3222 107.8236 0.1015 0.0939 0.0894 -26.2362 33.0561 108.0015 -5.9892 60.2757 -1.0248 -4.9751 -13.2058 -1.4130 -0.8450 -2.0753 7.5688 -47.0681 -20.9905 79.0687 1.7773 40.1599 6.8215 -15.8555 -2.9429 1.6856 0.5971 -32.8580 -17.1455 
0.0000 93.1000 0.0000 -68.1491 -11.0816 -172.4535 -70.9892 -0.0382 88.0057 95.9473 74.0674 -7.2242 -0.0354 23.9854 0.6197 -141.2502 3.9463 -159.9251 -149.3832 39.0660 -173.3848 -1.2176 -17.0280 -36.8567 -148.9247 6.9646 -71.7532 14.2242 1.7963 -80.1267 -0.0663 0.0562 -0.1656 -2.9549 7.9135 39.3323 -45.0055 -22.3215 138.0171 12.5842 3.9690 107.7848 0.1014 -0.0451 0.0349 -25.0814 32.1064 106.1957 -6.4411 61.1269 -0.1028 -4.7299 -12.9533 -1.2381 -0.9076 -1.9144 7.8642 -46.7427 -20.8734 80.0095 1.6313 41.1622 5.9329 -16.2220 -3.7671 1.6496 1.1162 -33.2494 -18.7788 
0.0000 93.1000 0.0000 -68.1980 -12.1763 -172.4110 -70.9902 -0.3114 88.0074 101.0137 74.0614 -12.0246 -0.6027 24.1825 0.4380 -140.2666 4.1100 -162.0113 -148.4181 38.9569 -174.2498 -1.0354 -17.0291 -36.1785 -148.0355 7.0153 -71.7465 14.0593 1.9623 -80.1549 -0.0984 -0.1871 0.0039 -2.9349 8.0584 39.6239 -45.8735 -22.0458 138.8616 12.8753 3.9486 106.9768 0.3264 0.1682 0.2321 -24.2569 31.0151 104.8576 -6.0511 61.3006 0.1421 -4.1052 -13.0370 -1.1934 -1.1891 -1.8423 7.8613 -46.7475 -21.1359 79.9795 1.8053 43.1116 4.8883 -17.3916 -4.0253 1.5673 1.3253 -33.6197 -20.2233 
0.0000 93.1000 0.0000 -68.2647 -13.2440 -172.3604 -70.9909 -0.2015 88.0059 102.9226 74.0390 -13.1678 -0.8975 24.0742 0.2224 -140.2347 4.0544 -161.8935 -148.2482 38.9383 -174.1994 -1.2068 -16.9779 -36.0560 -147.1292 7.0657 -72.6668 13.9150 1.9342 -79.1528 -0.0180 -0.0476 -0.1248 -3.0719 8.0806 39.9134 -45.8580 -21.2457 138.8351 12.2278 4.0529 106.7873 0.1349 -0.0392 0.0211 -24.2120 30.8371 103.9869 -6.1171 61.1293 0.0097 -3.7911 -11.8936 -1.0924 -1.0713 -3.0901 7.4023 -47.6999 -21.0406 79.1940 1.8267 44.0137 4.8382 -18.0427 -4.8777 1.7516 1.2114 -33.9255 -20.9501 
